# xmcd
#
# Track frame offsets:
#	150
#	20030
#	37392
#	53512
#	79427
#	98812
#	119786
#	143213
#	162518
#	184346
#	205768
#	229820
#	248833
#	270538
#	287528
#
# Disc length: 4252 seconds
#
# Revision: 1
# Processed by: cddbd v1.5.1PL0 Copyright (c) Steve Scherf et al.
# Submitted via: CDmax 2.0
#
DISCID=e2109a0f
DTITLE=The Notorious B.I.G. - Life After Death [CD1]
DYEAR=1997
DGENRE=Hip-hop
TTITLE0=Somebody's Gotta Die
TTITLE1=Hypnotize
TTITLE2=Kick in the Door
TTITLE3=Fuck You Tonight feat R. Kelly
TTITLE4=Last Day feat The Lox
TTITLE5=I Love The Dough feat Jaÿ-Z and Angela Winbush
TTITLE6=What's Beef
TTITLE7=Mo Money Mo Problems feat Mase and Puff Daddy
TTITLE8=Niggas Bleed
TTITLE9=I Got A Story To Tell
TTITLE10=Who Shot Ya?
TTITLE11=Big Poppa - remix
TTITLE12=112 feat Biggy - Only You
TTITLE13=The Firm - Phone Tap
TTITLE14=Redman, Eric Sermon, Keith Murray - Rapper's Delight
EXTD=Rodney's Mix
EXTT0=
EXTT1=
EXTT2=
EXTT3=
EXTT4=
EXTT5=
EXTT6=
EXTT7=
EXTT8=
EXTT9=
EXTT10=
EXTT11=
EXTT12=
EXTT13=
EXTT14=
PLAYORDER=
